PathFileType	4	(X/Y/Z)	Patient4_TMGait_0pt7_01_right_10.trc.trc
DataRate	CameraRate	NumFrames	NumMarkers	Units	OrigDataRate	OrigDataStartFrame	OrigNumFrames
86.419753086420	86.419753086420	5	33	mm	86.419753086420	124	       141
Frame#	Time	Sacral			L.Shoulder			Chest			R.Shoulder			Neck			R.ASIS			L.ASIS			R.Thigh.Superior			R.Thigh.Lateral			R.Thigh.Inferior			R.Patella			L.Thigh.Superior			L.Thigh.Lateral			L.Thigh.Inferior			L.Patella			L.Shank.Superior			L.Shank.Lateral			L.Shank.Inferior			R.Shank.Superior			R.Shank.Lateral			R.Shank.Inferior			R.Heel			R.Midfoot.Superior			R.Midfoot.Lateral			R.Toe			L.Heel			L.Midfoot.Lateral			L.Midfoot.Superior			L.Toe			L.Elbow			L.Wrist			R.Elbow			R.Wrist			
		X1	Y1	Z1	X2	Y2	Z2	X3	Y3	Z3	X4	Y4	Z4	X5	Y5	Z5	X6	Y6	Z6	X7	Y7	Z7	X8	Y8	Z8	X9	Y9	Z9	X10	Y10	Z10	X11	Y11	Z11	X12	Y12	Z12	X13	Y13	Z13	X14	Y14	Z14	X15	Y15	Z15	X16	Y16	Z16	X17	Y17	Z17	X18	Y18	Z18	X19	Y19	Z19	X20	Y20	Z20	X21	Y21	Z21	X22	Y22	Z22	X23	Y23	Z23	X24	Y24	Z24	X25	Y25	Z25	X26	Y26	Z26	X27	Y27	Z27	X28	Y28	Z28	X29	Y29	Z29	X30	Y30	Z30	X31	Y31	Z31	X32	Y32	Z32	X33	Y33	Z33	

124	12.333285714286	831.590940540246	984.346683089108	430.453591989062	1030.311272030933	1414.047863862192	257.590856918829	1119.538691246104	1341.281539255880	426.297283369365	1023.538932782283	1419.399022921592	591.585632226184	1021.742895249721	1472.999977386378	411.377014215884	1054.899882256029	920.562096664035	556.330219590501	1050.706590771360	942.940151085546	281.137139296225	1131.796051351817	753.326568046636	528.925111461198	1087.435609074644	629.949102568330	601.348768458145	1178.794973072228	595.528197231574	523.756672669191	1210.796543249943	512.653286900662	539.332874058837	1037.060577284373	714.170465299977	305.118692706196	911.614159400154	629.665612156740	240.995664024381	961.277047964862	530.532442499677	305.293347086142	939.673876014948	464.321629954147	314.946565892420	900.783013538013	401.868694065443	305.620890846193	789.696184733930	308.123280526340	255.065894050114	816.002244849561	189.270956796730	326.722347063964	1197.112806338111	422.060831076171	550.872632519028	1143.379802495961	308.555538749007	613.085532513701	1213.677161915195	223.239597275619	562.566369957874	1119.845872954484	42.394596066463	533.360053704030	1283.057817894933	110.377560469990	576.042441906610	1201.338956452026	40.482313518430	609.295234281000	1405.672451473267	69.103023502679	606.989764993544	663.765251776520	46.386116839465	366.887738972788	738.383254338909	38.399326022600	288.151281098287	824.210934052235	96.690269994910	313.849114988716	949.980068869722	38.176713251374	287.234843638678	1120.951397457899	1108.236986168172	91.362762126225	1370.008569418044	1117.477158616943	143.496542440484	825.628539570202	1146.410695409484	699.513796847926	739.872258582847	898.297889908313	709.317437904794	
125	12.344857142857	833.082995059574	982.870143426173	433.900793552335	1029.856648919117	1412.956303901005	260.329636553076	1119.955202070761	1340.624050886982	428.828888596276	1024.098280759126	1418.439704231378	594.495239629497	1021.668953898639	1471.993005911288	414.252195871610	1057.246866721894	919.176551478890	558.726970415137	1051.799912016492	941.952268474163	283.707300153705	1134.560737715559	751.532766459066	531.236554768474	1087.877311330494	627.767466144288	601.718663569796	1180.021332821719	593.815927175041	525.000573403830	1210.500881092897	509.684728387137	539.318409203641	1038.096807459516	713.092976070102	306.515457579621	912.053360801256	628.948570445665	243.122284532471	962.250570414060	529.219077735811	306.413838437405	940.390066868760	462.107813748787	315.737156056749	899.718467006090	400.331842344330	306.464524037948	786.314318271377	309.214526975154	255.846606152801	810.395906629653	189.366553692096	326.575547003685	1195.637700929508	418.668752859620	550.441559372389	1140.011891551025	305.901543247286	612.355928272683	1208.122020693414	219.468013491104	561.149718038534	1109.780894726843	41.575666444986	532.277643345012	1274.728322732657	105.864510348786	573.637054475710	1191.521843215581	38.522842268831	608.048309772401	1396.805376221638	61.907024848882	604.273717185492	655.837746079064	48.584542823615	366.475428571859	730.417240485389	39.228294586798	287.888609426466	816.854931996559	96.970759671511	313.254082255866	941.883916458884	38.036194915396	287.137804217684	1120.717757524069	1106.859570071981	94.379206697847	1369.014201196070	1123.986331109732	147.048665097507	826.615472326435	1144.934774447676	701.465401929806	738.490196110624	897.514701724770	710.377305386560	
126	12.356428571429	834.463434589409	981.988480646782	437.367157580002	1029.696756363156	1412.336619102115	263.165468830851	1120.565783939650	1340.311150812036	431.447395694731	1024.972000183609	1417.875563493260	597.536356542564	1021.955093114162	1471.474679045177	417.253211201634	1059.449018590524	918.413926287909	561.248708423308	1052.759186682067	941.412670015624	286.361694536129	1137.204890845285	750.423504661528	533.613507504009	1088.471994133495	626.424333003269	602.410221728961	1181.180478682072	592.773897848797	526.388066890792	1210.244690299086	507.430740417305	539.693539404533	1039.458155370059	712.497554610202	308.054522120936	913.077332678642	628.376681798161	245.420387778409	964.216248095608	528.128846378114	307.557572042545	942.267379639864	459.935018005339	316.384170068884	899.517985398124	398.906652067193	307.271796700205	783.604677680989	310.762656456005	256.723871468173	805.288865243451	189.822119522118	326.338694889320	1194.172347488194	416.040855863889	550.397068194719	1136.759666931072	304.021275426162	612.131367826138	1202.576280280591	216.461241840871	560.153208635000	1099.773668473943	41.230578892839	531.585034813373	1266.320030391889	102.262628737829	571.747458916362	1181.752847726313	37.195595496818	607.228172758898	1387.913165671700	55.896507537823	602.128473979482	648.103244209144	51.652733264778	366.034504140415	722.537277365854	40.491821782772	287.617760179212	809.832582806242	97.369809182726	312.524176244581	933.785437658584	37.888959736651	287.048796320135	1119.765954767973	1105.371929297659	97.744975141415	1367.357994415620	1129.027225308460	150.541487667181	828.904347942395	1142.802949783358	703.611654362979	739.357704045727	895.740102869653	711.632700499311	
127	12.368000000000	835.723126188717	981.719438626197	440.824578960820	1029.831988045129	1412.237672673935	266.076009280887	1121.352468558248	1340.373055609098	434.128150802017	1026.146514222088	1417.752595919842	600.664554477253	1022.588321635447	1471.471296565529	420.340720057423	1061.459312508951	918.302329913985	563.911795187036	1053.562841162286	941.357380153118	289.086119758609	1139.587532409696	749.974362619102	536.032609693088	1089.151460722088	625.898646774982	603.489598436554	1182.115375047336	592.318321039337	527.926985493936	1209.865492705598	505.864668403756	540.507015148461	1041.133793862236	712.412212203551	309.758644918336	914.732525951693	627.943116443671	247.846364364427	967.236780101939	527.281925594496	308.692936860292	945.366820712796	457.837049261044	316.820746667920	900.248457373523	397.625605675359	307.991053837858	781.656622601388	312.815011863496	257.681791094231	800.777735885211	190.705180984202	325.998091171647	1192.615735348769	414.166119455934	550.767623663805	1133.607377397164	302.871723798551	612.428803137541	1197.105524981017	214.238306338932	559.595744623536	1090.134309995407	41.234371836392	531.239013859171	1258.027418581108	99.636890866734	570.423249722981	1172.313795531427	36.431194352805	606.802950842841	1379.211022590276	51.292329766084	600.626784486103	640.657197836123	55.745256374382	365.579684339607	714.794047662175	42.314526565263	287.349658217099	803.216752782209	97.915804605739	311.672381969198	925.687401787188	37.731628715598	286.980713500326	1118.071834108894	1103.846466684523	101.454728240547	1365.124006932910	1132.559911747575	153.989004952452	832.427515006174	1140.169421898431	705.966155362296	742.517744770839	893.079424860000	713.070650996754	
128	12.379571428571	836.862813559502	982.038913434954	444.271305592897	1030.233874095995	1412.667392162069	269.035319754077	1122.283234480291	1340.814694426783	436.841777120069	1027.586194116004	1418.087425534059	603.827144636376	1023.523807380716	1471.970787304679	423.467930740969	1063.249429633557	918.818415625296	566.728804267545	1054.198255409269	941.785332109947	291.869382018593	1141.590932300329	750.091537988658	538.493304501974	1089.791773102471	626.079867205710	604.972524916149	1182.671326368932	592.306480150246	529.622522137319	1209.179023326391	504.879812411041	541.747195547369	1043.129001275982	712.833363536072	311.642468607339	917.083330863599	627.621966723156	250.348654911959	971.375650397004	526.682747126142	309.790670843871	949.739153233651	455.843463369767	316.998099779155	901.991784315866	396.508829827549	308.579539799271	780.583695258086	315.398735215920	258.698336717337	796.974682809543	192.074378964364	325.549905897086	1190.824164837739	412.949592446743	551.524017067409	1130.453106087866	302.336068311664	613.192408091154	1191.683297950572	212.727984512126	559.440595513634	1081.004327216743	41.460990969932	531.173439144427	1249.935268308547	97.928447248210	569.640873047025	1163.330668597075	36.116028568495	606.706162589983	1370.793090255468	48.095802482731	599.748901363886	633.623697574706	61.011606944874	365.124236830160	707.265396950259	44.839653712644	287.093183030306	797.087235301201	98.650576939815	310.726357831584	917.603352328448	37.553142468457	286.945976591118	1115.624616130009	1102.353000184368	105.489404605551	1362.380618272841	1134.560100987826	157.410354506537	837.084682240783	1137.202649232508	708.538943251279	747.987517165756	889.669986794557	714.677402005028	
